HIERARCHY
ROOT Hips
{
	OFFSET 0.000000 0.000000 0.000000
	CHANNELS 6 Xposition Yposition Zposition Zrotation Yrotation Xrotation 
	JOINT LeftUpLeg_virtual
	{
		OFFSET 0.000000 0.000000 0.000000
		CHANNELS 3 Zrotation Yrotation Xrotation
		JOINT LeftUpLeg
		{
			OFFSET 8.479694 -4.795517 -0.379053
			CHANNELS 3 Zrotation Yrotation Xrotation
			JOINT LeftLeg
			{
				OFFSET 0.485052 -32.551468 0.112863
				CHANNELS 3 Zrotation Yrotation Xrotation
				JOINT LeftFoot
				{
					OFFSET 0.438033 -32.635670 -3.012641
					CHANNELS 3 Zrotation Yrotation Xrotation
					JOINT LeftToeBase
					{
						OFFSET 0.970169 -13.225353 11.864223
						CHANNELS 3 Zrotation Yrotation Xrotation
						End Site
						{
							OFFSET 0.000000 0.000000 0.000000
						}
					}
				}
			}
		}
	}
	JOINT RightUpLeg_virtual
	{
		OFFSET 0.000000 0.000000 0.000000
		CHANNELS 3 Zrotation Yrotation Xrotation
		JOINT RightUpLeg
		{
			OFFSET -8.479694 -4.795517 -0.379053
			CHANNELS 3 Zrotation Yrotation Xrotation
			JOINT RightLeg
			{
				OFFSET -0.484100 -32.551483 0.112903
				CHANNELS 3 Zrotation Yrotation Xrotation
				JOINT RightFoot
				{
					OFFSET -0.438985 -32.635651 -3.012681
					CHANNELS 3 Zrotation Yrotation Xrotation
					JOINT RightToeBase
					{
						OFFSET -0.970169 -13.225354 11.864223
						CHANNELS 3 Zrotation Yrotation Xrotation
						End Site
						{
							OFFSET 0.000000 0.000000 0.000000
						}
					}
				}
			}
		}
	}
	JOINT Spine_virtual
	{
		OFFSET 0.000000 0.000000 0.000000
		CHANNELS 3 Zrotation Yrotation Xrotation
		JOINT Spine
		{
			OFFSET 0.000000 7.722015 1.166203
			CHANNELS 3 Zrotation Yrotation Xrotation
			JOINT Spine1
			{
				OFFSET 0.000000 12.024086 0.248766
				CHANNELS 3 Zrotation Yrotation Xrotation
				JOINT Spine2
				{
					OFFSET -0.000000 11.503036 -0.491240
					CHANNELS 3 Zrotation Yrotation Xrotation
					JOINT Neck_virtual
					{
						OFFSET 0.000000 0.000000 0.000000
						CHANNELS 3 Zrotation Yrotation Xrotation
						JOINT Neck
						{
							OFFSET 0.000000 18.430687 -3.123054
							CHANNELS 3 Zrotation Yrotation Xrotation
							JOINT Head
							{
								OFFSET -0.000000 9.051071 1.034021
								CHANNELS 3 Zrotation Yrotation Xrotation
								End Site
								{
									OFFSET 0.000000 0.000000 0.000000
								}
							}
						}
					}
					JOINT LeftShoulder_virtual
					{
						OFFSET 0.000000 0.000000 0.000000
						CHANNELS 3 Zrotation Yrotation Xrotation
						JOINT LeftShoulder
						{
							OFFSET 6.197824 13.665230 -4.064723
							CHANNELS 3 Zrotation Yrotation Xrotation
							JOINT LeftArm
							{
								OFFSET 7.778132 -0.187073 -1.709282
								CHANNELS 3 Zrotation Yrotation Xrotation
								JOINT LeftForeArm
								{
									OFFSET 21.954697 0.000000 -2.041093
									CHANNELS 3 Zrotation Yrotation Xrotation
									JOINT LeftHand
									{
										OFFSET 22.992908 0.000000 -0.870901
										CHANNELS 3 Zrotation Yrotation Xrotation
										End Site
										{
											OFFSET 0.000000 0.000000 0.000000
										}
									}
								}
							}
						}
					}
					JOINT RightShoulder_virtual
					{
						OFFSET 0.000000 0.000000 0.000000
						CHANNELS 3 Zrotation Yrotation Xrotation
						JOINT RightShoulder
						{
							OFFSET -6.197824 13.665230 -4.064723
							CHANNELS 3 Zrotation Yrotation Xrotation
							JOINT RightArm
							{
								OFFSET -7.778132 -0.187073 -1.709282
								CHANNELS 3 Zrotation Yrotation Xrotation
								JOINT RightForeArm
								{
									OFFSET -21.954697 0.000000 -2.041093
									CHANNELS 3 Zrotation Yrotation Xrotation
									JOINT RightHand
									{
										OFFSET -22.992908 0.000000 -0.870901
										CHANNELS 3 Zrotation Yrotation Xrotation
										End Site
										{
											OFFSET 0.000000 0.000000 0.000000
										}
									}
								}
							}
						}
					}
				}
			}
		}
	}
}
MOTION
Frames: 14
Frame Time: 0.033333
17.464386 79.445450 -7.886159 179.901760 35.616821 -179.557081 -2.523067 -0.512567 10.734972 -4.423409 5.240008 -29.493850 7.542522 10.438166 38.087782 -2.951305 -14.095094 -18.138681 0.000000 0.000000 0.000000 3.480845 0.533308 10.193788 -2.450109 -20.111142 -31.670737 0.886876 4.838893 46.126115 9.940183 11.923395 17.721052 0.000000 0.000000 0.000000 2.042826 3.493489 -3.362201 -4.839212 -0.906231 -4.947940 -3.138077 -0.989717 4.841625 -0.034717 0.000625 0.099874 -4.032217 1.295510 8.293042 0.669665 5.360869 -6.434384 0.000000 0.000000 0.000000 -1.919426 1.359913 5.493458 3.946129 6.928782 0.043106 -50.649831 4.497375 57.806145 157.600755 -80.107771 -124.772093 0.000000 0.000000 0.000000 -7.080805 3.064852 4.611662 19.022565 -12.027034 3.572227 59.340731 -1.524389 5.354899 -2.383817 18.723526 -5.897088 0.000000 0.000000 0.000000 
17.518135 79.437050 -7.851421 179.966100 34.100061 -179.495432 -2.461120 -0.545810 10.846536 -4.233502 4.655765 -29.755296 7.409837 10.119655 38.091340 -3.164454 -14.535580 -17.899373 0.000000 0.000000 0.000000 3.384894 0.306578 10.047133 -2.164652 -19.948829 -32.693472 1.041307 4.383567 47.839724 9.898146 11.641466 16.637006 0.000000 0.000000 0.000000 2.139851 3.259796 -3.307402 -5.026924 -0.773362 -4.833372 -3.286717 -0.902004 4.819269 0.013855 0.007273 0.085861 -4.247307 1.216677 8.256595 0.103740 5.561668 -6.263587 0.000000 0.000000 0.000000 -2.129444 1.532051 5.471516 3.939706 6.904564 0.032153 -50.975706 4.610315 57.597947 156.166183 -80.110756 -123.447241 0.000000 0.000000 0.000000 -7.262323 3.271370 4.598709 19.112871 -11.725431 3.620580 59.446825 -1.320636 5.870332 -2.375171 18.813809 -5.878077 0.000000 0.000000 0.000000 
17.562241 79.417351 -7.698587 179.905448 32.588000 -179.424753 -2.430366 -0.701801 10.937134 -4.137611 4.011915 -30.076728 7.500564 9.981421 38.068797 -3.484143 -14.908887 -17.595214 0.000000 0.000000 0.000000 2.969192 0.151043 9.889632 -1.995831 -19.404815 -33.697005 1.106535 3.876312 50.481221 9.891502 11.558021 14.821369 0.000000 0.000000 0.000000 2.145831 3.170258 -3.201049 -5.216061 -0.598684 -4.717027 -3.436024 -0.788636 4.759501 0.013817 0.038693 0.111060 -4.335462 1.455248 8.217453 -0.182516 5.543393 -6.106126 0.000000 0.000000 0.000000 -2.269766 1.625819 5.447383 4.056774 6.710637 0.003496 -51.143978 4.524551 57.543954 155.172882 -80.064154 -122.530097 0.000000 0.000000 0.000000 -7.353003 3.311153 4.569563 19.193943 -11.525624 3.638051 59.469378 -1.037698 6.388714 -2.356714 18.966035 -5.741509 0.000000 0.000000 0.000000 
17.614470 79.392403 -7.385072 179.867595 31.084375 -179.401120 -2.430004 -0.803543 10.981097 -4.041862 3.393724 -30.357056 7.790117 9.683983 37.989775 -4.110408 -15.296367 -17.227453 0.000000 0.000000 0.000000 2.788226 -0.110528 9.780359 -2.188970 -18.736373 -34.358020 1.104895 3.789263 53.038465 9.554179 11.965447 13.276101 0.000000 0.000000 0.000000 2.128805 2.984241 -3.038984 -5.355645 -0.527704 -4.539170 -3.560892 -0.719151 4.710580 0.037258 0.049056 0.093589 -4.469485 1.388928 8.157218 -0.541712 5.591852 -6.057556 0.000000 0.000000 0.000000 -2.398720 1.759616 5.348980 4.199438 6.501828 0.084313 -51.072186 4.296555 57.734394 153.972148 -80.063382 -121.358501 0.000000 0.000000 0.000000 -7.496174 3.483646 4.509625 19.224935 -11.272809 3.684556 59.399765 -0.838747 6.890565 -2.434448 19.225787 -5.783504 0.000000 0.000000 0.000000 
17.685648 79.365547 -6.918942 179.817352 30.226565 -179.373964 -2.491180 -0.638930 10.899422 -3.580519 2.445349 -30.550975 7.602770 9.459451 37.778138 -3.589667 -15.472720 -17.183352 0.000000 0.000000 0.000000 2.724748 0.289520 9.616369 -2.691095 -17.996758 -34.554467 1.201230 3.888075 54.608612 9.425981 12.319587 12.578520 0.000000 0.000000 0.000000 2.057856 3.088960 -2.852601 -5.483951 -0.288938 -4.253788 -3.613852 -0.523351 4.653397 0.045004 0.161840 0.060047 -4.519188 1.475097 8.034416 -0.802345 5.587651 -6.226846 0.000000 0.000000 0.000000 -2.483670 1.805649 5.229955 4.581684 6.132781 -0.011762 -51.024088 4.149425 58.090936 153.742572 -80.132292 -121.111220 0.000000 0.000000 0.000000 -7.534269 3.573952 4.556991 19.198171 -11.025047 3.719926 59.194360 -0.710054 7.306213 -2.436508 19.483313 -5.599738 0.000000 0.000000 0.000000 
17.769733 79.299644 -6.338417 179.840124 28.919677 -179.363322 -2.128194 -0.897037 10.722308 -3.591851 1.208410 -30.640379 7.640431 9.012712 37.507192 -4.036158 -15.029532 -16.971574 0.000000 0.000000 0.000000 2.747132 0.208260 9.506627 -3.202585 -17.164629 -34.505289 1.234916 3.810484 54.908260 9.267885 12.547641 12.054877 0.000000 0.000000 0.000000 1.957244 3.137283 -2.669585 -5.603247 -0.172054 -3.903320 -3.651514 -0.513094 4.636137 0.019123 0.108722 0.063594 -4.538460 1.530608 7.989273 -1.005320 5.519681 -6.230009 0.000000 0.000000 0.000000 -2.497829 1.909345 5.201098 4.738649 5.769960 0.173425 -50.679761 3.602304 58.530336 153.247015 -80.216139 -120.556309 0.000000 0.000000 0.000000 -7.516159 3.605041 4.533870 19.154623 -10.788303 3.712059 58.859913 -0.636840 7.473724 -2.554240 19.775368 -5.518218 0.000000 0.000000 0.000000 
17.844616 79.181381 -5.721307 179.798364 27.064326 -179.803104 -2.060348 -1.468748 10.086228 -4.591321 1.951609 -31.179076 7.874625 10.400620 37.480267 -0.869356 -12.066075 -14.101274 0.000000 0.000000 0.000000 2.854556 -0.156191 9.655402 -3.718187 -16.034878 -34.271690 1.201910 3.940267 54.613626 9.208848 12.774601 11.819217 0.000000 0.000000 0.000000 1.823850 2.857908 -2.322335 -5.683698 -0.263824 -3.318109 -3.706980 -0.482247 4.742585 -0.032441 0.065667 0.047663 -4.453742 1.688069 7.895248 -1.062018 5.353006 -6.188058 0.000000 0.000000 0.000000 -2.442656 1.905455 5.213160 4.773598 5.335224 0.239024 -50.417574 3.217446 58.919746 152.967633 -80.248289 -120.231492 0.000000 0.000000 0.000000 -7.439177 3.662114 4.377533 19.100240 -10.640830 3.684544 58.473461 -0.627823 7.444164 -2.674946 20.006413 -5.452638 0.000000 0.000000 0.000000 
17.890198 78.943703 -5.174255 -179.733833 25.049258 -179.872581 -2.575544 0.091362 9.399020 -4.865263 1.449874 -31.285545 8.594999 11.919570 34.705018 -0.105855 -8.809188 -17.195233 0.000000 0.000000 0.000000 3.154116 -0.759975 9.583888 -3.983436 -14.830960 -34.010889 1.263618 3.818898 54.249361 9.197299 12.920726 11.417948 0.000000 0.000000 0.000000 2.012932 2.670912 -2.063581 -5.639937 -0.313174 -2.789076 -3.612307 -0.539419 4.810180 -0.047218 -0.067273 0.005185 -4.532919 1.679307 7.874291 -1.098556 5.150775 -6.289737 0.000000 0.000000 0.000000 -2.548295 1.901555 5.239176 4.716778 4.891661 0.328777 -50.199619 2.740981 59.319148 152.707908 -80.218974 -119.862880 0.000000 0.000000 0.000000 -7.534489 3.640001 4.305517 18.979052 -10.589780 3.693093 58.335840 -0.637041 7.312489 -2.746403 20.193647 -5.243399 0.000000 0.000000 0.000000 
17.897413 78.630531 -4.751208 -179.319281 22.965275 -179.696922 -2.908036 1.156146 9.356791 -5.202147 1.001868 -31.877688 8.991907 12.564790 33.478428 0.992936 -6.924268 -18.241779 0.000000 0.000000 0.000000 3.459688 -1.171793 9.506823 -4.048928 -13.758628 -34.216666 1.362385 3.774033 54.706786 9.072549 13.040524 10.632228 0.000000 0.000000 0.000000 2.242918 2.370825 -1.995744 -5.509166 -0.418771 -2.454098 -3.646081 -0.503420 4.820436 -0.125063 -0.098436 0.012268 -4.510714 1.742262 7.912081 -1.142543 4.989840 -6.358489 0.000000 0.000000 0.000000 -2.554488 1.755609 5.303423 4.581424 4.518991 0.459988 -50.101500 2.219509 59.567944 151.975438 -80.183737 -118.975338 0.000000 0.000000 0.000000 -7.575113 3.531020 4.295807 18.999532 -10.502973 3.755392 58.273077 -0.684243 7.241787 -2.898880 20.438356 -5.330982 0.000000 0.000000 0.000000 
17.908272 78.321274 -4.469123 -179.542054 21.964369 -179.834851 -2.714400 0.856676 9.391395 -5.429687 -0.515987 -32.324055 9.268679 12.230482 33.988951 1.174317 -6.340773 -18.638531 0.000000 0.000000 0.000000 3.461434 -1.178460 9.449442 -4.412119 -12.228403 -34.823337 1.505110 3.966027 56.681209 8.842319 13.151175 9.412884 0.000000 0.000000 0.000000 2.175146 2.292255 -1.843388 -5.669604 -0.167379 -2.233179 -3.610175 -0.489024 4.819448 -0.068299 -0.163554 0.006905 -4.611789 1.648168 7.915943 -1.206322 4.835140 -6.371034 0.000000 0.000000 0.000000 -2.676550 1.982819 5.303642 4.447174 4.291550 0.470980 -50.010932 1.854684 59.418425 152.503999 -80.323660 -119.405517 0.000000 0.000000 0.000000 -7.659675 3.709621 4.323444 18.979726 -10.273130 3.760229 58.419004 -0.670134 7.345896 -2.993897 20.572038 -5.254818 0.000000 0.000000 0.000000 
17.928038 78.050865 -4.258714 -179.645149 20.908538 -179.956087 -2.504507 0.576119 9.502566 -5.604260 -2.014672 -32.883652 9.691269 11.871996 34.828098 1.349243 -5.847791 -18.915220 0.000000 0.000000 0.000000 3.504388 -1.266304 9.508485 -4.703079 -10.619137 -35.580426 1.716262 4.121098 59.818448 8.373400 13.166264 7.730619 0.000000 0.000000 0.000000 2.260639 2.105171 -1.661370 -5.711190 0.079648 -2.089468 -3.682531 -0.333503 4.807525 -0.042402 -0.078480 -0.002320 -4.688334 1.812705 7.893392 -1.221257 4.708297 -6.386742 0.000000 0.000000 0.000000 -2.783264 2.081869 5.306881 4.340411 4.088985 0.549876 -49.848322 1.365146 59.136693 152.162353 -80.413456 -118.916653 0.000000 0.000000 0.000000 -7.696556 3.691506 4.339526 18.962683 -10.201985 3.752518 58.777227 -0.616093 7.650277 -3.020992 20.677392 -5.225671 0.000000 0.000000 0.000000 
17.969034 77.864449 -4.071488 -179.725117 19.687716 -179.936006 -2.325047 0.013094 9.642541 -5.640387 -3.448659 -33.544111 9.982246 11.438189 35.465470 1.522402 -5.445457 -18.931288 0.000000 0.000000 0.000000 3.584842 -1.617150 9.563750 -5.044589 -8.880918 -36.528125 2.010376 4.329064 63.445736 7.869665 12.990895 5.875434 0.000000 0.000000 0.000000 2.417632 1.813047 -1.579396 -5.709152 0.233258 -2.056562 -3.776698 -0.267228 4.807051 -0.077714 -0.081830 0.042573 -4.728609 1.983292 7.863532 -1.163418 4.522656 -6.384864 0.000000 0.000000 0.000000 -2.823520 2.162071 5.212014 4.181273 4.025292 0.655898 -49.641719 1.026521 58.750664 151.738485 -80.429603 -118.346018 0.000000 0.000000 0.000000 -7.734769 3.786090 4.360662 19.026030 -10.046114 3.777507 59.148175 -0.580202 8.161640 -3.093837 20.827004 -5.249713 0.000000 0.000000 0.000000 
18.021938 77.770546 -3.853692 -179.641666 18.603243 -179.833403 -1.986739 -0.427930 9.933815 -5.605718 -4.731916 -34.206205 10.074374 11.077447 35.738207 1.733960 -5.052778 -18.692180 0.000000 0.000000 0.000000 3.845800 -1.668672 9.615287 -5.463585 -7.243071 -37.330276 2.250494 4.399363 66.570425 7.288935 12.951560 4.209303 0.000000 0.000000 0.000000 2.671827 1.591346 -1.499848 -5.599191 0.337393 -2.117698 -3.784073 -0.083786 4.734673 -0.047363 0.086319 0.026024 -4.845218 1.934323 7.922549 -1.012100 4.389270 -6.347920 0.000000 0.000000 0.000000 -2.912103 2.131066 5.311533 4.195879 3.958446 0.748923 -49.515654 0.736214 58.431449 151.683243 -80.556228 -118.035723 0.000000 0.000000 0.000000 -7.839147 3.844843 4.315912 18.977920 -10.085515 3.854290 59.736343 -0.525483 8.426241 -3.100967 20.935189 -5.346184 0.000000 0.000000 0.000000 
18.046757 77.722275 -3.586861 -179.826901 17.612869 -179.911827 -1.863428 -0.651293 10.106949 -5.691996 -5.837261 -34.507591 10.001416 10.765294 35.553614 1.827854 -4.681982 -18.277538 0.000000 0.000000 0.000000 3.881550 -1.696676 9.707351 -5.816715 -5.585827 -37.878747 2.526700 4.626802 68.364415 6.889918 12.737317 2.996697 0.000000 0.000000 0.000000 2.762619 1.555802 -1.413610 -5.503921 0.456414 -2.124604 -3.822877 -0.161122 4.713727 -0.049818 -0.011565 -0.018382 -4.794384 1.953776 7.933138 -0.946894 4.335809 -6.359881 0.000000 0.000000 0.000000 -2.878068 2.219561 5.252452 4.093480 4.014642 0.769355 -49.331625 0.888339 58.192126 153.063583 -80.643962 -119.310277 0.000000 0.000000 0.000000 -7.755755 3.838916 4.400736 18.833839 -9.834729 3.908058 60.160238 -0.279766 8.559404 -3.039014 21.044055 -5.336122 0.000000 0.000000 0.000000 
